<svg xmlns="http://www.w3.org/2000/svg" viewBox="0 0 200 200"><defs><style>.cls-1{fill:#eab2b0;}</style></defs><title>SexTalk-LoveTalk-Logo</title><g id="Favicon"><path class="cls-1" d="M96,100.91c-1.24,1.47-4.89-.39-6.21-1.18-4.62-2.78-17.89-27.5-24-42.54C57.2,36.24,49,16,47.61,10.83c-1.17-4.49.1-6.21,1-11,9,18.29,16.9,37.65,25.86,55.94C81,69,88.53,81.23,95,94.51,95.6,95.79,97.13,99.52,96,100.91Z"/><path class="cls-1" d="M89,107.08c1.89.39,3,4.72-3.65,4.72-41.88,0-64-29.24-64.13-29.64a38.79,38.79,0,0,1-1-7.56,2.3,2.3,0,0,1,3.64-1.91C28.9,76.92,47.17,98.51,89,107.08Z"/><path class="cls-1" d="M79.45,127.6c-6.71,9.74-35.91,12.82-48.33,13-2.93,0-4.51-7-4.51-7s20.29-2.5,27-3.69c6-1.06,15.15-3.16,23.16-7.65C83.71,118.44,80.14,126.61,79.45,127.6Z"/><path class="cls-1" d="M95.08,131.88c-9.7,14.8-24.65,34.74-42.23,56.82-4.3,4.57-7.62,3.57-9.64,2a3.39,3.39,0,0,1-.48-4.76l50-62.42C93.59,122.44,95.87,129.85,95.08,131.88Z"/><path class="cls-1" d="M103.55,147.49l-16.09,51a1.86,1.86,0,0,1-1.76,1.35H78a2,2,0,0,1-1.77-2.58c3.32-10.5,16.15-49.92,24.22-58.84C101.6,137.13,105.31,141.7,103.55,147.49Z"/><path class="cls-1" d="M132.74,112.15a3.87,3.87,0,0,1-1.93-.38c-1.35-.68-3.78-2.2-3.45-4.41.4-2.7,24.75-6.72,30.27-7.6,6-1.17,13,3.24,4.75,6.38C153.59,109.55,137.85,111.77,132.74,112.15Z"/><path class="cls-1" d="M154.6,182.3c-1.56.23-3.41-.54-5.33-1.49-18.84-9.29-35.63-37.68-40.83-49.41-1.22-2.76,9.72-2.12,9.72-2.12s12.28,19.85,16.93,26.53A133.16,133.16,0,0,0,157,179.93C157.92,180.84,156.08,182.08,154.6,182.3Z"/><path class="cls-1" d="M128.52,130.53c-.56.77-.21,2.72.22,3.55,4.12,8.06,23.4,10.66,32.81,12,2.21.32,4.11-4.83,4.11-4.83s-15.14-3.92-20.11-5.49c-4.45-1.4-6.54-1.76-12.58-6C132.34,129.43,129.05,129.81,128.52,130.53Z"/><path class="cls-1" d="M109.36,103.77a3.33,3.33,0,0,0,1.13,4.51c1.36.84,3.6.69,6.45-1.62,12.24-12.65,28.18-31,37.57-41.37a21.58,21.58,0,0,0-6.34-4.8C134.8,68.64,119.24,88.52,109.36,103.77Z"/><path class="cls-1" d="M104,91.79c-.77-1.38-.71-3.38-.5-5.51,2-20.91,22.59-46.69,31.71-55.7,2.15-2.13,5.43,8.33,5.43,8.33a213.81,213.81,0,0,0-33.56,54.32C106.52,94.38,104.71,93.09,104,91.79Z"/><path class="cls-1" d="M173.62,124.3c1.21.24,1.79,3.78,1.06,4.29-10,7-42.11-6-48.43-7.47-2.88-.66-.93-6-.93-6S157,121,173.62,124.3Z"/></g></svg>